<?xml version="1.0" encoding="UTF-8"?>
<svg width="20px" height="22px" viewBox="0 0 20 22" version="1.1" xmlns="http://www.w3.org/2000/svg" xmlns:xlink="http://www.w3.org/1999/xlink">
    <!-- Generator: Sketch 51.1 (57501) - http://www.bohemiancoding.com/sketch -->
    <title>close@2x</title>
    <desc>Created with Sketch.</desc>
    <defs></defs>
    <g id="天天预约日历-0822" stroke="none" stroke-width="1" fill="none" fill-rule="evenodd">
        <g id="时刻选择-2" transform="translate(-46.000000, -515.000000)" fill="#000000" fill-rule="nonzero">
            <g id="Group-16" transform="translate(0.000000, 486.000000)">
                <g id="Group-12-Copy">
                    <g id="close" transform="translate(40.000000, 24.000000)">
                        <rect id="Rectangle-path" opacity="0" x="0" y="0" width="32" height="32"></rect>
                        <path d="M17.61875,16 L25.821875,6.221875 C25.959375,6.059375 25.84375,5.8125 25.63125,5.8125 L23.1375,5.8125 C22.990625,5.8125 22.85,5.878125 22.753125,5.990625 L15.9875,14.05625 L9.221875,5.990625 C9.128125,5.878125 8.9875,5.8125 8.8375,5.8125 L6.34375,5.8125 C6.13125,5.8125 6.015625,6.059375 6.153125,6.221875 L14.35625,16 L6.153125,25.778125 C6.015625,25.940625 6.13125,26.1875 6.34375,26.1875 L8.8375,26.1875 C8.984375,26.1875 9.125,26.121875 9.221875,26.009375 L15.9875,17.94375 L22.753125,26.009375 C22.846875,26.121875 22.9875,26.1875 23.1375,26.1875 L25.63125,26.1875 C25.84375,26.1875 25.959375,25.940625 25.821875,25.778125 L17.61875,16 Z" id="Shape"></path>
                    </g>
                </g>
            </g>
        </g>
    </g>
</svg>